<svg width="18" height="18" xmlns="http://www.w3.org/2000/svg" enable-background="new 0 0 18 18" xml:space="preserve">
 <g>
  <title>Layer 1</title>
  <path fill="#ffffff" d="m0,1l0,1l0,14l18,0l0,-14l0,-1l-18,0zm17,14l-16,0l0,-12l16,0l0,12zm-12,-3.1l-0.6,0l0,-4c0,-0.3 0,-0.7 0,-1c-0.1,0 -0.1,0.1 -0.2,0.2c-0.1,0 -0.4,0.3 -0.9,0.7l-0.4,-0.4l1.5,-1.2l0.6,0l0,5.7zm5,0l-3.8,0l0,-0.6l1.5,-1.5c0.5,-0.5 0.8,-0.8 0.9,-1c0.2,-0.2 0.3,-0.4 0.4,-0.5c0.1,-0.2 0.1,-0.4 0.1,-0.6c0,-0.3 -0.1,-0.5 -0.3,-0.7c-0.2,-0.3 -0.4,-0.3 -0.8,-0.3c-0.2,0 -0.5,0 -0.7,0.1c-0.1,0.1 -0.4,0.2 -0.6,0.4l-0.4,-0.4c0.5,-0.5 1.1,-0.7 1.7,-0.7c0.5,0 1,0.1 1.3,0.4s0.5,0.6 0.5,1.1c0,0.4 -0.1,0.7 -0.3,1.1s-0.6,0.8 -1.2,1.3l-1.2,1.2l0,0l2.9,0l0,0.7zm4.8,-4.3c0,0.4 -0.1,0.7 -0.3,0.9c-0.2,0.2 -0.5,0.4 -0.9,0.5l0,0c0.5,0.1 0.8,0.2 1,0.4c0.2,0.2 0.3,0.5 0.3,0.9c0,0.5 -0.2,1 -0.6,1.3c-0.4,0.3 -0.9,0.4 -1.6,0.4c-0.3,0 -0.6,0 -0.8,-0.1c-0.3,0 -0.5,-0.1 -0.7,-0.2l0,-0.6c0.2,0.1 0.5,0.2 0.8,0.3c0.3,0.1 0.5,0.1 0.8,0.1c1,0 1.5,-0.4 1.5,-1.2c0,-0.7 -0.5,-1 -1.6,-1l-0.6,0l0,-0.6l0.6,0c0.4,0 0.8,-0.1 1.1,-0.3c0.3,-0.2 0.4,-0.5 0.4,-0.8c0,-0.3 -0.1,-0.5 -0.3,-0.7s-0.5,-0.2 -0.8,-0.2c-0.2,0 -0.5,0 -0.7,0.1c-0.2,0.1 -0.5,0.2 -0.8,0.4l-0.3,-0.4c0.2,-0.2 0.5,-0.3 0.8,-0.4c0.3,-0.1 0.6,-0.2 1,-0.2c0.6,0 1,0.1 1.3,0.4c0.3,0.2 0.4,0.5 0.4,1z" id="svg_1"/>
  <text transform="matrix(1.06504 0 0 1.33405 -0.183603 -3.85647)" stroke="#000" font-style="normal" xml:space="preserve" text-anchor="start" font-family="'Encode Sans'" font-size="2" id="svg_2" y="13.88671" x="1.72642" stroke-width="0" fill="#ffffff">"No Data" Filter</text>
 </g>

</svg>